<?xml version="1.0" encoding="UTF-8"?>
<svg width="600" height="400" viewBox="0 0 600 400" fill="none" xmlns="http://www.w3.org/2000/svg">
    <defs>
        <linearGradient id="grad1" x1="0%" y1="0%" x2="100%" y2="100%">
            <stop offset="0%" style="stop-color:#4F46E5;stop-opacity:0.2"/>
            <stop offset="100%" style="stop-color:#818CF8;stop-opacity:0.2"/>
        </linearGradient>
        <linearGradient id="grad2" x1="0%" y1="0%" x2="100%" y2="100%">
            <stop offset="0%" style="stop-color:#FB7185;stop-opacity:0.2"/>
            <stop offset="100%" style="stop-color:#FFB1C1;stop-opacity:0.2"/>
        </linearGradient>
    </defs>
    
    <!-- Background Shapes -->
    <circle cx="300" cy="200" r="150" fill="url(#grad1)"/>
    <circle cx="400" cy="300" r="100" fill="url(#grad2)"/>
    
    <!-- Graduation Cap -->
    <path d="M250 150L350 150L300 100L250 150Z" fill="#4F46E5"/>
    <rect x="290" y="150" width="20" height="60" fill="#4F46E5"/>
    <path d="M270 160L330 160L300 180L270 160Z" fill="#818CF8"/>
    
    <!-- Books -->
    <rect x="200" y="250" width="200" height="20" fill="#FB7185" rx="5"/>
    <rect x="220" y="230" width="160" height="20" fill="#4F46E5" rx="5"/>
    <rect x="240" y="210" width="120" height="20" fill="#818CF8" rx="5"/>
    
    <!-- Stars -->
    <path d="M150 100L160 120L180 110L160 100L150 80L140 100L120 110L140 120L150 100Z" fill="#FB7185"/>
    <path d="M450 150L460 170L480 160L460 150L450 130L440 150L420 160L440 170L450 150Z" fill="#818CF8"/>
    <path d="M400 50L410 70L430 60L410 50L400 30L390 50L370 60L390 70L400 50Z" fill="#4F46E5"/>
    
    <!-- Text -->
    <text x="300" y="350" font-family="Arial, sans-serif" font-size="24" fill="#4F46E5" text-anchor="middle">Success in Education</text>
</svg> 